<svg xmlns="http://www.w3.org/2000/svg"><symbol id="facebook" viewBox="0 0 16 16"><path d="M16 8.049c0-4.446-3.582-8.05-8-8.05C3.58 0-.002 3.603-.002 8.05c0 4.017 2.926 7.347 6.75 7.951v-5.625h-2.03V8.05H6.75V6.275c0-2.017 1.195-3.131 3.022-3.131.876 0 1.791.157 1.791.157v1.98h-1.009c-.993 0-1.303.621-1.303 1.258v1.51h2.218l-.354 2.326H9.25V16c3.824-.604 6.75-3.934 6.75-7.951z"/></symbol><symbol id="instagram" viewBox="0 0 16 16"><path d="M8 0C5.829 0 5.556.01 4.703.048 3.85.088 3.269.222 2.76.42a3.917 3.917 0 0 0-1.417.923A3.927 3.927 0 0 0 .42 2.76C.222 3.268.087 3.85.048 4.7.01 5.555 0 5.827 0 8.001c0 2.172.01 2.444.048 3.297.04.852.174 1.433.372 1.942.205.526.478.972.923 1.417.444.445.89.719 1.416.923.51.198 1.09.333 1.942.372C5.555 15.99 5.827 16 8 16s2.444-.01 3.298-.048c.851-.04 1.434-.174 1.943-.372a3.916 3.916 0 0 0 1.416-.923c.445-.445.718-.891.923-1.417.197-.509.332-1.09.372-1.942C15.99 10.445 16 10.173 16 8s-.01-2.445-.048-3.299c-.04-.851-.175-1.433-.372-1.941a3.926 3.926 0 0 0-.923-1.417A3.911 3.911 0 0 0 13.24.42c-.51-.198-1.092-.333-1.943-.372C10.443.01 10.172 0 7.998 0h.003zm-.717 1.442h.718c2.136 0 2.389.007 3.232.046.78.035 1.204.166 1.486.275.373.145.64.319.92.599.28.28.453.546.598.92.11.281.24.705.275 1.485.039.843.047 1.096.047 3.231s-.008 2.389-.047 3.232c-.035.78-.166 1.203-.275 1.485a2.47 2.47 0 0 1-.599.919c-.28.28-.546.453-.92.598-.28.11-.704.24-1.485.276-.843.038-1.096.047-3.232.047s-2.39-.009-3.233-.047c-.78-.036-1.203-.166-1.485-.276a2.478 2.478 0 0 1-.92-.598 2.48 2.48 0 0 1-.6-.92c-.109-.281-.24-.705-.275-1.485-.038-.843-.046-1.096-.046-3.233 0-2.136.008-2.388.046-3.231.036-.78.166-1.204.276-1.486.145-.373.319-.64.599-.92.28-.28.546-.453.92-.598.282-.11.705-.24 1.485-.276.738-.034 1.024-.044 2.515-.045v.002zm4.988 1.328a.96.96 0 1 0 0 1.92.96.96 0 0 0 0-1.92zm-4.27 1.122a4.109 4.109 0 1 0 0 8.217 4.109 4.109 0 0 0 0-8.217zm0 1.441a2.667 2.667 0 1 1 0 5.334 2.667 2.667 0 0 1 0-5.334z"/></symbol><symbol id="left" viewBox="0 0 16 16"><path d="M10 12.796V3.204L4.519 8 10 12.796zm-.659.753-5.48-4.796a1 1 0 0 1 0-1.506l5.48-4.796A1 1 0 0 1 11 3.204v9.592a1 1 0 0 1-1.659.753z"/></symbol><symbol style="margin:auto;background:0 0;display:block;shape-rendering:auto" preserveAspectRatio="xMidYMid" id="loading" viewBox="0 0 100 100"><path d="M10 50a40 40 0 0 0 80 0 40 42 0 0 1-80 0" fill="#54ed39"><animateTransform attributeName="transform" type="rotate" dur="1s" repeatCount="indefinite" keyTimes="0;1" values="0 50 51;360 50 51"/></path></symbol><symbol id="right" viewBox="0 0 16 16"><path d="M6 12.796V3.204L11.481 8 6 12.796zm.659.753 5.48-4.796a1 1 0 0 0 0-1.506L6.66 2.451C6.011 1.885 5 2.345 5 3.204v9.592a1 1 0 0 0 1.659.753z"/></symbol><symbol fill="none" id="switch" viewBox="0 0 16 16"><path d="M15 8A7 7 0 1 1 1 8a7 7 0 0 1 14 0z" fill="#fff" stroke="#000" stroke-opacity=".5"/><path d="m5 8 2.25-3.464v6.928L5 8zm6 0-2.25 3.464V4.536L11 8z" fill="#000" fill-opacity=".5"/></symbol><symbol fill="none" id="veg" viewBox="0 0 42 42"><path d="M28.406 42a4.68 4.68 0 0 0 4.47-3.303l2.862-9.297a43.341 43.341 0 0 0 1.917-12.745c0-3.2-2.593-5.793-5.793-5.793h-1.448a5.793 5.793 0 0 0-5.793 5.793v21.56A3.785 3.785 0 0 0 28.406 42z" fill="#D43D3D"/><path d="M23.715 2.142a13.702 13.702 0 0 0-.814 5.824h.995c1.6 0 2.897 1.297 2.897 2.896v1.448H15.931v-1.448c0-1.6 1.297-2.896 2.897-2.896A11.336 11.336 0 0 1 21.332.543l2.383 1.6z" fill="#5F9548"/><path d="M13.594 42a4.68 4.68 0 0 1-4.47-3.303L6.262 29.4a43.34 43.34 0 0 1-1.917-12.745c0-3.2 2.593-5.793 5.793-5.793h1.448c3.2 0 5.793 2.594 5.793 5.793v21.56A3.785 3.785 0 0 1 13.594 42z" fill="#D43D3D"/><path d="M13.034 15.207v2.642c0 3.544.271 7.083.81 10.586l1.248 9.79a4.345 4.345 0 0 0 4.295 3.684h2.68a4.345 4.345 0 0 0 4.294-3.684l1.792-9.79c.54-3.503.812-7.042.813-10.586v-2.642c0-2.4-1.946-4.345-4.345-4.345h-7.242a4.345 4.345 0 0 0-4.345 4.345z" fill="#E94F4F"/><path d="m14.799 35.917.293 2.31a4.345 4.345 0 0 0 4.295 3.684h2.68a4.344 4.344 0 0 0 4.294-3.684l1.792-9.79c.54-3.502.811-7.039.813-10.581a30.703 30.703 0 0 1-14.168 18.061z" fill="#E04646"/><path d="M15.207 17.38h1.448v1.538h-1.448V17.38zm.869 11.462-.405-2.836a39.77 39.77 0 0 1-.464-5.585l1.448-.016c.02 1.805.168 3.607.442 5.391l.408 2.843-1.429.203z" fill="#F26666"/><path d="M23.897 1.448a1.448 1.448 0 1 1-2.897 0 1.448 1.448 0 0 1 2.897 0z" fill="#77AD50"/></symbol></svg>